<svg width="10" height="10" viewBox="0 0 10 10" fill="none" xmlns="http://www.w3.org/2000/svg">
<path d="M2.23488 5C2.23488 4.48232 2.36114 4.01042 2.61366 3.58428C2.86619 3.15814 3.20551 2.81881 3.63164 2.56629C4.05778 2.31376 4.52968 2.1875 5.04735 2.1875C5.49557 2.1875 5.90908 2.28378 6.28786 2.47633C6.6698 2.66888 6.98546 2.93245 7.23482 3.26705C7.48419 3.59849 7.63886 3.97412 7.69883 4.39394H6.55301C6.48988 4.06881 6.31469 3.80366 6.02745 3.59849C5.74021 3.39015 5.41351 3.28599 5.04735 3.28599C4.73169 3.28599 4.44445 3.36332 4.18562 3.51799C3.92678 3.67266 3.72003 3.87942 3.56536 4.13826C3.41069 4.3971 3.33335 4.68434 3.33335 5C3.33335 5.31566 3.41069 5.6029 3.56536 5.86174C3.72003 6.12058 3.92678 6.32734 4.18562 6.48201C4.44445 6.63668 4.73169 6.71402 5.04735 6.71402C5.41351 6.71402 5.72285 6.61143 5.97537 6.40625C6.23105 6.19792 6.39203 5.93119 6.45832 5.60606H7.60414C7.54416 6.02588 7.39738 6.40309 7.1638 6.73769C6.93022 7.06913 6.63035 7.33112 6.26419 7.52367C5.90119 7.71623 5.49557 7.8125 5.04735 7.8125C4.52968 7.8125 4.05778 7.68624 3.63164 7.43371C3.20551 7.18119 2.86619 6.84186 2.61366 6.41572C2.36114 5.98958 2.23488 5.51768 2.23488 5ZM5 10C4.31188 10 3.66479 9.87058 3.05873 9.61174C2.45584 9.35291 1.92396 8.99463 1.46311 8.53693C1.00541 8.07607 0.645567 7.54419 0.383575 6.94129C0.12474 6.33838 -0.00309951 5.69129 5.70468e-05 5C0.00321354 4.30871 0.13421 3.66162 0.393045 3.05871C0.655037 2.45581 1.01488 1.92551 1.47258 1.4678C1.93027 1.00694 2.46057 0.647096 3.06347 0.388258C3.66637 0.129419 4.31188 0 5 0C5.69128 0 6.33837 0.129419 6.94127 0.388258C7.54732 0.647096 8.07762 1.00694 8.53216 1.4678C8.98985 1.92551 9.34812 2.45581 9.60695 3.05871C9.86579 3.66162 9.99679 4.30871 9.99994 5C10.0031 5.69129 9.87526 6.33838 9.61642 6.94129C9.35759 7.54419 8.99932 8.07607 8.54163 8.53693C8.08393 8.99463 7.55205 9.35291 6.946 9.61174C6.33995 9.87058 5.69128 10 5 10ZM5 8.90152C5.53977 8.90152 6.04639 8.80051 6.51987 8.59849C6.99335 8.39647 7.40843 8.11711 7.76512 7.76042C8.12181 7.40373 8.40116 6.99022 8.60318 6.51989C8.8052 6.0464 8.90463 5.54135 8.90147 5.00474C8.89831 4.46496 8.79573 3.95833 8.59371 3.48485C8.39169 3.01136 8.11234 2.59628 7.75565 2.23958C7.39896 1.88289 6.98546 1.60354 6.51513 1.40152C6.04481 1.1995 5.53977 1.09849 5 1.09849C4.46339 1.09849 3.95992 1.1995 3.4896 1.40152C3.01928 1.60354 2.60577 1.88447 2.24908 2.24432C1.8924 2.60101 1.61147 3.0161 1.40629 3.48958C1.20427 3.95991 1.10169 4.46496 1.09853 5.00474C1.09537 5.53819 1.1948 6.04167 1.39682 6.51515C1.59884 6.98548 1.87819 7.39899 2.23488 7.75568C2.59472 8.11237 3.00981 8.39331 3.48013 8.59849C3.95361 8.80051 4.46023 8.90152 5 8.90152Z" fill="white"/>
</svg>
