<svg width="40" height="23" viewBox="0 0 40 23" fill="none" xmlns="http://www.w3.org/2000/svg">
<path fill-rule="evenodd" clip-rule="evenodd" d="M21.0443 17.3406C22.0383 15.6288 22.6087 13.6321 22.6087 11.5C22.6087 9.36786 22.0383 7.37123 21.0443 5.65943C22.7896 3.29714 25.5671 1.76923 28.6957 1.76923C33.9784 1.76923 38.2609 6.12584 38.2609 11.5C38.2609 16.8742 33.9784 21.2308 28.6957 21.2308C25.5671 21.2308 22.7896 19.7029 21.0443 17.3406ZM20 4.15138C17.9264 1.61484 14.8008 0 11.3043 0C5.06113 0 0 5.14873 0 11.5C0 17.8514 5.06113 23 11.3043 23C14.8008 23 17.9264 21.3852 20 18.8487C22.0736 21.3852 25.1993 23 28.6957 23C34.939 23 40 17.8514 40 11.5C40 5.14873 34.939 0 28.6957 0C25.1993 0 22.0736 1.61484 20 4.15138Z" fill="white"/>
</svg>
